Coordinates
version=1
nRows=5
nColumns=40
inDegrees=yes

Units are S.I. units (second, meters, Newtons, ...)
Angles are in degrees.

endheader
time	pelvis_tilt	pelvis_list	pelvis_rotation	pelvis_tx	pelvis_ty	pelvis_tz	hip_flexion_r	hip_adduction_r	hip_rotation_r	knee_angle_r	knee_angle_r_beta	ankle_angle_r	subtalar_angle_r	mtp_angle_r	hip_flexion_l	hip_adduction_l	hip_rotation_l	knee_angle_l	knee_angle_l_beta	ankle_angle_l	subtalar_angle_l	mtp_angle_l	lumbar_extension	lumbar_bending	lumbar_rotation	arm_flex_r	arm_add_r	arm_rot_r	elbow_flex_r	pro_sup_r	wrist_flex_r	wrist_dev_r	arm_flex_l	arm_add_l	arm_rot_l	elbow_flex_l	pro_sup_l	wrist_flex_l	wrist_dev_l
     12.58000000	     -2.09537314	     -3.33760255	     -4.90719400	      0.93670832	      0.91016379	      0.44443985	     22.22651316	     -7.23498850	     -6.04014966	     69.14978815	     69.14978815	      5.67436906	    -19.44489715	     16.38533002	     17.53582926	      0.48963485	     -2.84643319	     35.23658576	     35.23658576	     23.70629465	    -18.86728621	     13.00555275	    -11.02990946	      6.76762035	      3.20863662	     10.71164422	    -13.24731976	    -20.00288631	     20.58749195	     46.94189198	      0.00000000	      0.00000000	     18.17780941	    -13.77326338	     12.96562056	     37.54790287	     45.31438804	      0.00000000	      0.00000000
     12.60085714	     -1.96855332	     -3.40497058	     -5.52936240	      0.93543428	      0.91077032	      0.44408068	     23.84941886	     -6.62162867	     -5.28891040	     68.88593742	     68.88593742	      7.39492532	    -19.43487343	     18.32890126	     16.77625970	      0.41625543	     -3.32414837	     34.86577739	     34.86577739	     24.04441017	    -18.88947949	     13.19781098	    -11.22998688	      7.20938297	      2.57151879	      7.14865898	    -12.81090371	    -20.85427108	     20.75274716	     47.02403775	      0.00000000	      0.00000000	     19.61653400	    -15.00888166	     12.48495318	     40.30569870	     45.44075266	      0.00000000	      0.00000000
     12.62171429	     -1.89049517	     -3.50821664	     -6.24120242	      0.93407139	      0.91218752	      0.44421256	     25.22016204	     -5.88232719	     -4.60045633	     67.65476923	     67.65476923	      8.55059964	    -19.40637584	     17.96245920	     15.84026626	      0.26429440	     -3.90809251	     34.07177693	     34.07177693	     24.11560067	    -18.86442979	     13.18739070	    -11.35192211	      7.64390933	      2.37238169	      3.87662112	    -12.63813261	    -21.06858904	     19.73266933	     47.07118315	      0.00000000	      0.00000000	     21.60183764	    -15.93180519	     11.88813761	     42.03603180	     45.54873811	      0.00000000	      0.00000000
     12.64257143	     -1.89203434	     -3.64781789	     -6.98779093	      0.93251451	      0.91424916	      0.44480122	     26.42513852	     -4.97362082	     -3.90244207	     65.61850338	     65.61850338	      9.61217047	    -19.33468312	     17.32762905	     14.81068630	      0.04766354	     -4.55343430	     32.91927915	     32.91927915	     23.97618498	    -18.79447892	     13.12728184	    -11.47120006	      8.06470057	      2.17132232	      0.67343612	    -12.47610552	    -21.35037548	     19.14899812	     47.10588579	      0.00000000	      0.00000000	     23.43701688	    -17.00512974	     11.14030641	     44.14693602	     45.67091550	      0.00000000	      0.00000000
     12.66342857	     -2.03984397	     -3.80628959	     -7.76566327	      0.93078493	      0.91661452	      0.44582708	     27.44660359	     -4.02814247	     -3.33904655	     62.72126949	     62.72126949	      9.95270260	    -19.21900582	     14.61317083	     13.78752621	     -0.24052288	     -5.31349647	     31.45644696	     31.45644696	     23.34248220	    -18.70231533	     12.11041426	    -11.50942890	      8.49613327	      1.62893998	     -2.71479290	    -12.15399917	    -22.19494698	     20.48434091	     47.13649719	      0.00000000	      0.00000000	     24.30550811	    -18.58196304	      9.60264056	     48.12840441	     45.90888789	      0.00000000	      0.00000000
